<?xml version="1.0" standalone="no"?>
<!DOCTYPE svg PUBLIC "-//W3C//DTD SVG 20010904//EN"
 "http://www.w3.org/TR/2001/REC-SVG-20010904/DTD/svg10.dtd">
<svg version="1.0" xmlns="http://www.w3.org/2000/svg"
 width="1920.000000pt" height="1080.000000pt" viewBox="0 0 1920.000000 1080.000000"
 preserveAspectRatio="xMidYMid meet">

<g transform="translate(0.000000,1080.000000) scale(0.100000,-0.100000)"
fill="#000000" stroke="none">
<path d="M10940 6525 c-165 -47 -247 -160 -257 -355 -7 -117 7 -187 54 -283
31 -62 61 -96 208 -243 197 -196 224 -238 233 -354 9 -127 -34 -190 -128 -190
-95 0 -130 50 -130 184 l0 87 -122 -3 -123 -3 1 -96 c3 -229 92 -356 275 -395
192 -41 374 33 443 180 64 134 59 340 -9 477 -39 78 -81 127 -246 289 -168
165 -190 199 -197 307 -8 121 29 173 122 173 91 0 126 -47 126 -170 l0 -70
126 0 127 0 -7 94 c-8 114 -26 179 -69 243 -35 52 -107 106 -165 123 -64 19
-201 22 -262 5z"/>
<path d="M12669 6522 c-115 -31 -184 -94 -231 -211 -23 -55 -23 -61 -26 -580
-2 -342 1 -541 8 -575 34 -164 136 -260 306 -288 77 -13 190 1 259 31 104 46
174 149 195 287 7 47 10 239 8 560 l-3 489 -25 70 c-33 93 -108 172 -195 205
-83 31 -208 36 -296 12z m194 -233 c13 -6 32 -25 43 -42 18 -30 19 -60 22
-512 2 -264 0 -500 -3 -524 -10 -67 -58 -111 -119 -111 -26 0 -61 7 -77 16
-59 30 -59 35 -59 584 0 538 1 549 51 584 27 18 106 21 142 5z"/>
<path d="M11585 6508 c-3 -7 -4 -375 -3 -818 l3 -805 348 -3 347 -2 0 120 0
120 -220 0 -220 0 0 250 0 250 175 0 175 0 0 115 0 115 -175 0 -175 0 0 215 0
215 220 0 220 0 0 120 0 120 -345 0 c-267 0 -347 -3 -350 -12z"/>
<path d="M13352 5828 l3 -693 24 -60 c66 -163 248 -244 451 -201 91 19 153 56
201 120 77 101 74 69 77 839 l3 687 -126 0 -125 0 0 -660 c0 -548 -2 -666 -14
-695 -33 -78 -166 -90 -213 -18 -17 25 -18 73 -23 698 l-5 670 -128 3 -128 3
3 -693z"/>
<path d="M14290 5700 l0 -820 338 2 337 3 3 118 3 117 -211 0 -210 0 -2 698
-3 697 -127 3 -128 3 0 -821z"/>
<path d="M7610 5510 l0 -610 65 0 65 0 0 143 0 143 48 54 48 54 139 -193 c77
-106 144 -195 150 -198 7 -2 44 -3 84 -1 l72 3 -172 230 c-94 127 -173 236
-176 243 -3 6 60 80 141 166 80 84 146 157 146 160 0 4 -10 6 -23 4 -15 -2
-99 -84 -237 -230 l-215 -227 -5 393 -5 394 -50 41 c-27 22 -55 41 -62 41 -10
0 -13 -124 -13 -610z"/>
<path d="M3882 6030 c-195 -52 -326 -187 -379 -390 -22 -88 -22 -263 1 -350
57 -219 208 -367 407 -400 81 -14 185 -2 242 26 70 35 127 107 162 203 13 33
14 25 14 -91 l1 -128 70 0 70 0 -2 283 -3 282 -215 0 c-184 0 -215 -2 -215
-15 0 -13 24 -15 148 -18 l149 -3 -7 -72 c-27 -286 -122 -422 -305 -435 -95
-7 -155 16 -230 85 -177 163 -223 520 -101 768 74 149 181 227 322 233 143 7
247 -46 322 -164 40 -64 75 -87 62 -41 -29 94 -111 183 -204 218 -81 31 -214
35 -309 9z"/>
<path d="M8832 5967 c-48 -51 -10 -137 61 -137 67 0 105 92 57 140 -29 29 -90
27 -118 -3z"/>
<path d="M5354 5719 c-29 -4 -77 -18 -107 -32 -280 -128 -283 -614 -5 -758
128 -66 307 -58 406 18 31 24 92 106 92 125 0 17 -39 7 -45 -12 -11 -35 -104
-109 -158 -125 -137 -41 -244 2 -311 124 -26 50 -55 160 -56 213 l0 28 288 2
287 3 3 43 c7 95 -39 222 -103 287 -68 67 -176 98 -291 84z m131 -48 c91 -41
132 -142 126 -308 l-1 -23 -220 0 -220 0 0 23 c1 46 29 157 54 205 53 105 163
148 261 103z"/>
<path d="M6618 5719 c-122 -13 -241 -107 -287 -225 -35 -89 -41 -239 -12 -332
46 -151 157 -246 319 -273 80 -13 169 -1 232 31 42 21 106 89 120 126 13 33
13 34 -4 34 -8 0 -29 -21 -48 -47 -47 -65 -117 -102 -207 -110 -59 -5 -76 -2
-124 20 -92 42 -155 153 -172 305 l-6 52 292 0 292 0 -5 83 c-14 233 -163 361
-390 336z m155 -58 c61 -37 107 -158 107 -278 l0 -43 -225 0 -225 0 4 23 c3
12 8 44 11 70 21 164 119 265 243 253 29 -2 67 -14 85 -25z"/>
<path d="M9870 5718 c-138 -18 -243 -105 -290 -244 -56 -163 -24 -350 79 -466
118 -133 364 -165 503 -67 37 27 88 96 88 121 0 27 -24 22 -41 -8 -23 -44 -99
-103 -152 -119 -146 -43 -258 8 -321 146 -26 56 -46 139 -46 190 l0 29 285 0
c258 0 286 2 292 17 10 26 -14 167 -38 222 -24 57 -101 134 -157 158 -50 21
-135 30 -202 21z m140 -50 c77 -39 120 -133 120 -260 l0 -68 -220 0 -220 0 0
23 c0 48 23 144 46 192 55 119 170 165 274 113z"/>
<path d="M8827 5703 c-4 -3 -7 -186 -7 -405 l0 -398 70 0 70 0 0 363 0 363
-51 42 c-50 41 -69 49 -82 35z"/>
</g>
</svg>
